<svg width="600" height="371" aria-label="A chart." style="overflow: hidden;"><defs id="defs"><clipPath id="_ABSTRACT_RENDERER_ID_17"><rect x="115" y="71" width="371" height="229"></rect></clipPath></defs><rect x="0" y="0" width="600" height="371" stroke="none" stroke-width="0" fill="#ffffff"></rect><g><text text-anchor="start" x="115" y="49.6" font-family="Arial" font-size="16" font-weight="bold" stroke="none" stroke-width="0" fill="#000000">Detecting Attacks</text></g><g><rect x="498" y="71" width="90" height="31" stroke="none" stroke-width="0" fill-opacity="0" fill="#ffffff"></rect><g><rect x="498" y="71" width="90" height="12" stroke="none" stroke-width="0" fill-opacity="0" fill="#ffffff"></rect><g><text text-anchor="start" x="515" y="81.2" font-family="Arial" font-size="12" stroke="none" stroke-width="0" fill="#222222">SimpleDB</text></g><rect x="498" y="71" width="12" height="12" stroke="none" stroke-width="0" fill="#dc3912"></rect></g><g><rect x="498" y="90" width="90" height="12" stroke="none" stroke-width="0" fill-opacity="0" fill="#ffffff"></rect><g><text text-anchor="start" x="515" y="100.2" font-family="Arial" font-size="12" stroke="none" stroke-width="0" fill="#222222">SimpleCQL</text></g><rect x="498" y="90" width="12" height="12" stroke="none" stroke-width="0" fill="#3366cc"></rect></g></g><g><rect x="115" y="71" width="371" height="229" stroke="none" stroke-width="0" fill-opacity="0" fill="#ffffff"></rect><g clip-path="url(#_ABSTRACT_RENDERER_ID_17)"><g><rect x="115" y="71" width="1" height="229" stroke="none" stroke-width="0" fill="#cccccc"></rect><rect x="197" y="71" width="1" height="229" stroke="none" stroke-width="0" fill="#cccccc"></rect><rect x="279" y="71" width="1" height="229" stroke="none" stroke-width="0" fill="#cccccc"></rect><rect x="362" y="71" width="1" height="229" stroke="none" stroke-width="0" fill="#cccccc"></rect><rect x="444" y="71" width="1" height="229" stroke="none" stroke-width="0" fill="#cccccc"></rect><rect x="115" y="299" width="371" height="1" stroke="none" stroke-width="0" fill="#cccccc"></rect><rect x="115" y="242" width="371" height="1" stroke="none" stroke-width="0" fill="#cccccc"></rect><rect x="115" y="185" width="371" height="1" stroke="none" stroke-width="0" fill="#cccccc"></rect><rect x="115" y="128" width="371" height="1" stroke="none" stroke-width="0" fill="#cccccc"></rect><rect x="115" y="71" width="371" height="1" stroke="none" stroke-width="0" fill="#cccccc"></rect></g><g><rect x="115" y="71" width="1" height="229" stroke="none" stroke-width="0" fill="#333333"></rect><rect x="115" y="299" width="371" height="1" stroke="none" stroke-width="0" fill="#333333"></rect></g><g><path d="M115.5,288.955L136.05555555555554,283.255L156.61111111111111,262.45L177.16666666666669,266.155L197.72222222222223,230.53L218.27777777777777,251.905L238.83333333333334,241.36L259.3888888888889,221.125L279.94444444444446,226.255L300.5,168.115L321.05555555555554,187.78000000000003L341.6111111111111,173.245L362.1666666666667,128.215L382.72222222222223,111.97000000000003L403.27777777777777,152.44000000000003L423.8333333333333,134.485L444.3888888888889,79.19500000000002L464.94444444444446,98.86000000000001L485.5,73.21000000000001" stroke="#dc3912" stroke-width="2" fill-opacity="1" fill="none"></path><path d="M115.5,299.215L136.05555555555554,298.645L156.61111111111111,297.505L177.16666666666669,295.795L197.72222222222223,293.515L218.27777777777777,291.52L238.83333333333334,288.67L259.3888888888889,285.535L279.94444444444446,281.26L300.5,277.555L321.05555555555554,272.425L341.6111111111111,268.15L362.1666666666667,262.45L382.72222222222223,255.325L403.27777777777777,250.195L423.8333333333333,243.35500000000002L444.3888888888889,234.235L464.94444444444446,225.115L485.5,214.85500000000002" stroke="#3366cc" stroke-width="2" fill-opacity="1" fill="none"></path></g></g><g></g><g><g><text text-anchor="middle" x="115.5" y="317.2" font-family="Arial" font-size="12" stroke="none" stroke-width="0" fill="#444444">1000</text></g><g><text text-anchor="middle" x="197.72222222222223" y="317.2" font-family="Arial" font-size="12" stroke="none" stroke-width="0" fill="#444444">5000</text></g><g><text text-anchor="middle" x="279.94444444444446" y="317.2" font-family="Arial" font-size="12" stroke="none" stroke-width="0" fill="#444444">9000</text></g><g><text text-anchor="middle" x="362.1666666666667" y="317.2" font-family="Arial" font-size="12" stroke="none" stroke-width="0" fill="#444444">13000</text></g><g><text text-anchor="middle" x="444.3888888888889" y="317.2" font-family="Arial" font-size="12" stroke="none" stroke-width="0" fill="#444444">17000</text></g><g><text text-anchor="end" x="103" y="303.7" font-family="Arial" font-size="12" stroke="none" stroke-width="0" fill="#444444">0</text></g><g><text text-anchor="end" x="103" y="246.7" font-family="Arial" font-size="12" stroke="none" stroke-width="0" fill="#444444">200</text></g><g><text text-anchor="end" x="103" y="189.7" font-family="Arial" font-size="12" stroke="none" stroke-width="0" fill="#444444">400</text></g><g><text text-anchor="end" x="103" y="132.70000000000002" font-family="Arial" font-size="12" stroke="none" stroke-width="0" fill="#444444">600</text></g><g><text text-anchor="end" x="103" y="75.70000000000003" font-family="Arial" font-size="12" stroke="none" stroke-width="0" fill="#444444">800</text></g></g></g><g><g><text text-anchor="middle" x="300.5" y="349.2" font-family="Arial" font-size="12" font-style="italic" stroke="none" stroke-width="0" fill="#222222">Tuples per timestep</text></g><g><text text-anchor="middle" x="45.7" y="185.5" font-family="Arial" font-size="12" font-style="italic" transform="rotate(-90 45.7 185.5)" stroke="none" stroke-width="0" fill="#222222">Execution time (s)</text></g></g><g></g></svg>